<svg xmlns="http://www.w3.org/2000/svg" version="1.0" width="600" height="125" preserveAspectRatio="xMidYMid meet"><rect id="backgroundrect" width="100%" height="100%" x="0" y="0" fill="none" stroke="none"/>
<metadata>
Created by potrace 1.15, written by Peter Selinger 2001-2017
</metadata>

<g class="currentLayer" style=""><title>Layer 1</title><g transform="translate(0,125) scale(0.10000000149011612,-0.10000000149011612) " fill="#ffffff" stroke="#ffffff" id="svg_1" class="" fill-opacity="1" stroke-opacity="1">
<path d="M2704.444444179535,610.5555558204651 l0,-505 l485,0 l485,0 l0,505 l0,505 l-485,0 l-485,0 l0,-505 zm960,0 l0,-495 l-475,0 l-475,0 l0,495 l0,495 l475,0 l475,0 l0,-495 z" id="svg_2" fill="#ffffff" fill-opacity="1" stroke="#ffffff" stroke-opacity="1"/>
<path d="M3084.444444179535,825.5555558204651 l0,-210 l45,0 l45,0 l0,210 l0,210 l-45,0 l-45,0 l0,-210 z" id="svg_3" fill="#ffffff" fill-opacity="1" stroke="#ffffff" stroke-opacity="1"/>
<path d="M2744.444444179535,790.5555558204651 l0,-175 l45,0 l45,0 l0,175 l0,175 l-45,0 l-45,0 l0,-175 z" id="svg_4" fill="#ffffff" fill-opacity="1" stroke="#ffffff" stroke-opacity="1"/>
<path d="M3534.444444179535,740.5555558204651 l0,-125 l45,0 l45,0 l0,125 l0,125 l-45,0 l-45,0 l0,-125 z" id="svg_5" fill="#ffffff" fill-opacity="1" stroke="#ffffff" stroke-opacity="1"/>
<path d="M2974.444444179535,710.5555558204651 l0,-95 l45,0 l45,0 l0,95 l0,95 l-45,0 l-45,0 l0,-95 z" id="svg_6" fill="#ffffff" fill-opacity="1" stroke="#ffffff" stroke-opacity="1"/>
<path d="M3194.444444179535,440.5555558204651 l0,-175 l45,0 l45,0 l0,175 l0,175 l-45,0 l-45,0 l0,-175 z" id="svg_7" fill="#ffffff" fill-opacity="1" stroke="#ffffff" stroke-opacity="1"/>
<path d="M3414.444444179535,450.5555558204651 l0,-165 l45,0 l45,0 l0,165 l0,165 l-45,0 l-45,0 l0,-165 z" id="svg_8" fill="#ffffff" fill-opacity="1" stroke="#ffffff" stroke-opacity="1"/>
<path d="M3784.444444179535,610.5555558204651 l0,-505 l485,0 l485,0 l0,505 l0,505 l-485,0 l-485,0 l0,-505 zm960,0 l0,-495 l-475,0 l-475,0 l0,495 l0,495 l475,0 l475,0 l0,-495 z" id="svg_9" fill="#ffffff" fill-opacity="1" stroke="#ffffff" stroke-opacity="1"/>
<path d="M3926.444444179535,1043.555555820465 c-10,-18 -31,-54 -46,-80 c-15,-27 -33,-48 -39,-48 c-8,0 -13,-14 -13,-36 c0,-32 1,-34 13,-18 c7,10 13,21 13,26 c0,11 87,10 94,0 c22,-35 107,-525 93,-538 c-2,-2 -21,32 -42,76 c-22,44 -42,80 -46,80 c-8,0 -129,-101 -129,-107 c0,-6 38,16 45,26 c3,5 23,24 45,41 l39,31 l50,-103 c28,-57 53,-112 56,-122 c4,-13 9,-16 15,-10 c6,6 35,138 66,293 c30,156 61,289 68,297 c12,11 20,-1 51,-74 c20,-48 50,-111 66,-140 c29,-51 29,-54 17,-117 c-6,-36 -15,-62 -18,-58 c-4,5 -29,92 -56,195 c-26,103 -50,185 -52,183 c-6,-6 98,-407 108,-418 c4,-5 14,23 21,63 c15,88 35,108 25,26 c-4,-38 -3,-55 4,-51 c5,3 10,21 10,38 c1,32 1,32 18,11 c9,-11 24,-31 34,-45 l16,-24 l40,85 l39,84 l19,-73 c19,-72 19,-73 79,-108 c78,-47 75,-46 75,-36 c0,5 -27,25 -60,44 c-56,32 -61,38 -76,89 c-35,121 -28,150 79,309 c31,47 57,91 57,100 c0,9 -3,11 -8,6 c-21,-26 -62,-84 -62,-90 c0,-4 -13,-25 -29,-48 c-35,-51 -72,-127 -112,-227 c-17,-41 -34,-79 -39,-84 c-4,-4 -20,9 -34,30 l-25,39 l28,165 c31,182 31,182 67,40 c10,-41 20,-67 22,-58 c4,19 -42,200 -59,234 c-6,12 -8,35 -4,52 l6,30 l62,-19 c57,-17 65,-17 117,-3 c30,9 59,20 64,25 c5,5 -20,0 -57,-10 c-65,-19 -67,-19 -129,-1 c-34,11 -63,18 -64,17 c-1,-1 -21,-96 -45,-210 c-37,-178 -45,-206 -56,-191 c-7,9 -41,82 -75,161 c-35,78 -66,143 -70,143 c-8,0 -13,-15 -74,-233 c-26,-92 -50,-164 -54,-160 c-20,22 -73,236 -92,376 c-12,86 -25,157 -29,157 c-4,0 -16,-15 -27,-32 zm198,-515 c-43,-216 -48,-239 -54,-232 c-6,6 -47,311 -43,316 c2,2 13,-26 23,-62 c10,-36 22,-65 26,-65 c7,0 26,61 64,198 c32,115 26,55 -16,-155 z" id="svg_10" fill="#ffffff" fill-opacity="1" stroke="#ffffff" stroke-opacity="1"/>
<path d="M4864.444444179535,610.5555558204651 l0,-505 l485,0 l485,0 l0,505 l0,505 l-485,0 l-485,0 l0,-505 zm960,0 c0,-488 0,-495 -20,-495 c-18,0 -20,7 -20,88 l0,87 l-41,47 c-22,27 -44,48 -48,48 c-5,0 -29,-44 -55,-97 l-47,-97 l-46,70 c-25,38 -47,71 -49,73 c-2,2 -25,-15 -52,-38 l-49,-41 l-49,69 l-48,68 l-49,-30 c-40,-24 -51,-27 -58,-16 c-5,8 -25,40 -45,71 c-19,32 -37,58 -39,58 c-2,0 -24,-54 -50,-121 c-26,-66 -49,-118 -52,-115 c-3,3 -25,42 -49,88 l-43,83 l-1,-147 c0,-141 -1,-148 -20,-148 c-20,0 -20,7 -20,495 l0,495 l475,0 l475,0 l0,-495 z" id="svg_11" fill="#ffffff" fill-opacity="1" stroke="#ffffff" stroke-opacity="1"/>
<path d="M4915.444444179535,912.5555558204651 c-1,-114 1,-124 46,-268 c26,-82 51,-149 57,-149 c6,0 27,17 48,37 l38,37 l50,-24 c27,-13 51,-22 53,-19 c2,2 23,32 47,67 c23,34 45,62 47,62 c2,0 26,-47 53,-105 l49,-105 l49,0 c57,0 73,10 173,107 l66,65 l41,-21 c23,-12 44,-21 47,-21 c3,0 5,51 5,114 l0,113 l-47,37 l-46,36 l-48,-100 c-65,-137 -129,-217 -183,-231 c-23,-5 -46,-12 -53,-14 c-7,-2 -33,31 -60,76 l-48,80 l-51,-6 l-51,-6 l-44,56 c-46,58 -47,58 -122,40 c-24,-6 -26,-3 -70,127 l-45,133 l-1,-118 z" id="svg_12" fill="#ffffff" fill-opacity="1" stroke="#ffffff" stroke-opacity="1"/>
<path d="M1594.444444179535,965.5555558204651 l0,-81 l-22,21 c-16,14 -35,20 -71,20 c-40,0 -53,-5 -77,-28 c-72,-72 -60,-218 22,-267 c36,-21 100,-16 129,11 c17,16 19,16 19,1 c0,-11 8,-17 25,-17 l25,0 l0,210 l0,210 l-25,0 c-25,0 -25,-1 -25,-80 zm-29,-99 c30,-24 40,-128 15,-166 c-33,-50 -85,-56 -125,-14 c-37,40 -34,137 5,180 c22,24 75,24 105,0 z" id="svg_13" fill="#ffffff" fill-opacity="1" stroke="#ffffff" stroke-opacity="1"/>
<path d="M354.4444441795349,715.5555558204651 l0,-210 l25,0 c24,0 25,2 25,76 l0,75 l26,-20 c36,-29 102,-28 139,1 c74,58 74,208 0,266 c-37,29 -103,30 -139,1 l-26,-20 l0,20 c0,16 -6,21 -25,21 l-25,0 l0,-210 zm191,144 c20,-22 24,-36 24,-91 c0,-59 -3,-67 -28,-89 c-15,-13 -39,-24 -52,-24 c-13,0 -37,11 -52,24 c-25,22 -28,30 -28,89 c0,55 4,69 24,91 c16,17 35,26 56,26 c21,0 40,-9 56,-26 z" id="svg_14" fill="#ffffff" fill-opacity="1" stroke="#ffffff" stroke-opacity="1"/>
<path d="M732.4444441795349,918.5555558204651 c-11,-3 -18,-14 -18,-28 c0,-22 3,-24 26,-15 c44,17 112,12 134,-10 c36,-36 26,-50 -35,-50 c-64,0 -119,-20 -134,-48 c-21,-39 -13,-101 15,-129 c23,-22 32,-25 80,-21 c33,3 62,12 74,23 c18,16 20,16 20,2 c0,-12 8,-17 26,-17 l26,0 l-4,121 l-3,121 l-33,29 c-29,26 -39,29 -95,28 c-34,-1 -70,-3 -79,-6 z" id="svg_15" fill="#ffffff" fill-opacity="1" stroke="#ffffff" stroke-opacity="1"/>
<path d="M1044.444444179535,775.5555558204651 l0,-150 l25,0 c25,0 25,0 25,95 c0,131 18,165 89,165 c51,0 61,-24 61,-148 l0,-112 l31,0 l32,0 l-6,114 c-5,116 -20,167 -52,180 c-36,13 -102,6 -129,-15 l-26,-20 l0,20 c0,16 -6,21 -25,21 l-25,0 l0,-150 z" id="svg_16" fill="#ffffff" fill-opacity="1" stroke="#ffffff" stroke-opacity="1"/>
<path d="M1772.444444179535,918.5555558204651 c-11,-3 -18,-14 -18,-28 c0,-22 3,-24 26,-15 c66,25 154,2 154,-41 c0,-16 -7,-19 -55,-19 c-64,0 -119,-20 -134,-48 c-15,-27 -13,-93 2,-113 c33,-43 117,-53 161,-18 c21,17 26,18 26,5 c0,-10 9,-16 25,-16 l25,0 l0,110 c0,121 -10,154 -51,176 c-26,13 -122,18 -161,7 z" id="svg_17" fill="#ffffff" fill-opacity="1" stroke="#ffffff" stroke-opacity="1"/>
<path d="M2100.444444179535,904.5555558204651 c-20,-16 -26,-29 -26,-58 c0,-53 15,-68 95,-93 c62,-20 70,-26 73,-50 c6,-47 -58,-60 -156,-32 c-21,6 -23,4 -20,-17 c4,-27 29,-37 106,-38 c65,-1 107,19 120,59 c21,59 -7,93 -100,120 c-58,18 -68,24 -68,43 c0,13 5,28 12,35 c14,14 87,16 122,2 c23,-9 26,-7 26,14 c0,30 -16,36 -94,36 c-49,0 -69,-5 -90,-21 z" id="svg_18" fill="#ffffff" fill-opacity="1" stroke="#ffffff" stroke-opacity="1"/>
</g><path fill="#ffffff" fill-opacity="1" stroke="#ffffff" stroke-opacity="1" stroke-width="2" stroke-dasharray="none" stroke-linejoin="round" stroke-linecap="butt" stroke-dashoffset="" fill-rule="nonzero" opacity="0" marker-start="" marker-mid="" marker-end="" d="M75,53.81366781798084 C75,50.273029963541674 77.80584037173752,47.40511330144596 81.26984083067273,47.40511330144596 C84.73384128960792,47.40511330144596 87.53968166134544,50.273029963541674 87.53968166134544,53.81366781798084 C87.53968166134544,57.35430567242001 84.73384128960792,60.222222334515735 81.26984083067273,60.222222334515735 C77.80584037173752,60.222222334515735 75,57.35430567242001 75,53.81366781798084 z" id="svg_19" class=""/><path fill="#ffffff" fill-opacity="1" stroke="#ffffff" stroke-opacity="1" stroke-width="2" stroke-dasharray="none" stroke-linejoin="round" stroke-linecap="butt" stroke-dashoffset="" fill-rule="nonzero" opacity="0" marker-start="" marker-mid="" marker-end="" d="M179,53.81366781798084 C179,50.273029963541674 181.80584037173753,47.405113301445965 185.26984083067273,47.405113301445965 C188.73384128960794,47.405113301445965 191.53968166134544,50.273029963541674 191.53968166134544,53.81366781798084 C191.53968166134544,57.35430567242001 188.73384128960794,60.222222334515735 185.26984083067273,60.222222334515735 C181.80584037173753,60.222222334515735 179,57.35430567242001 179,53.81366781798084 z" class="" id="svg_21"/></g></svg>